<svg width="60" height="62" viewBox="0 0 60 62" fill="none" xmlns="http://www.w3.org/2000/svg">
<path d="M19.2001 38.2725C22.6001 41.9349 31.6801 47.0624 40.8001 38.2725" stroke="white" stroke-width="2" stroke-linecap="round"/>
<path d="M59.1909 23.8767C59.5461 25.4003 59.7891 26.9681 59.9104 28.5705L58.9132 28.646C58.9707 29.4052 59 30.1727 59 30.9473C59 31.7219 58.9707 32.4893 58.9132 33.2485L59.9104 33.324C59.7891 34.9265 59.5461 36.4943 59.1909 38.0179L58.217 37.7908C57.8654 39.2988 57.4001 40.762 56.8309 42.1704L57.7581 42.5451C57.1604 44.0242 56.4518 45.4449 55.6428 46.7966L54.7847 46.2831C53.9943 47.6039 53.1048 48.8566 52.1268 50.0304L52.8951 50.6705C51.879 51.8901 50.7704 53.0274 49.5804 54.0713L48.921 53.3196C47.7696 54.3295 46.5397 55.2487 45.242 56.0665L45.7752 56.9125C44.4391 57.7544 43.0332 58.4926 41.5684 59.1159L41.1768 58.1958C39.7784 58.7909 38.3246 59.2776 36.8254 59.6457L37.0638 60.6169C35.5432 60.9902 33.9775 61.2458 32.3764 61.3734L32.2969 60.3766C31.5393 60.437 30.7733 60.4678 30 60.4678C29.2267 60.4678 28.4607 60.437 27.7031 60.3766L27.6236 61.3734C26.0225 61.2458 24.4568 60.9902 22.9362 60.6169L23.1746 59.6457C21.6754 59.2776 20.2216 58.7909 18.8232 58.1958L18.4316 59.1159C16.9668 58.4926 15.5609 57.7544 14.2248 56.9125L14.758 56.0665C13.4602 55.2487 12.2304 54.3295 11.079 53.3196L10.4196 54.0713C9.22958 53.0274 8.121 51.8901 7.10488 50.6705L7.87317 50.0304C6.89518 48.8566 6.0057 47.6039 5.21526 46.2831L4.35718 46.7966C3.54822 45.4449 2.83962 44.0242 2.24191 42.5451L3.16906 42.1704C2.59988 40.762 2.13463 39.2989 1.78302 37.7908L0.80914 38.0179C0.453909 36.4943 0.210943 34.9265 0.0896204 33.324L1.08677 33.2485C1.02929 32.4893 1 31.7219 1 30.9473C1 30.1727 1.02929 29.4052 1.08677 28.646L0.0896197 28.5705C0.210942 26.9681 0.453908 25.4003 0.809138 23.8767L1.78302 24.1037C2.13462 22.5957 2.59988 21.1325 3.16906 19.7241L2.24191 19.3494C2.83962 17.8704 3.54822 16.4496 4.35718 15.0979L5.21526 15.6114C6.0057 14.2906 6.89518 13.0379 7.87317 11.8641L7.10488 11.224C8.121 10.0044 9.22958 8.86708 10.4196 7.82321L11.079 8.57497C12.2304 7.56506 13.4602 6.64584 14.758 5.82807L14.2249 4.98204C15.5609 4.14011 16.9668 3.40194 18.4316 2.77858L18.8232 3.69873C20.2216 3.10362 21.6754 2.6169 23.1746 2.24879L22.9362 1.27764C24.4568 0.904277 26.0225 0.648758 27.6236 0.521111L27.7031 1.51795C28.4607 1.45754 29.2267 1.42676 30 1.42676C30.7733 1.42676 31.5393 1.45754 32.2969 1.51795L32.3764 0.521111C33.9775 0.648758 35.5432 0.904277 37.0638 1.27764L36.8254 2.24879C38.3246 2.6169 39.7784 3.10363 41.1768 3.69873L41.5684 2.77858C43.0332 3.40195 44.4391 4.14012 45.7752 4.98204L45.242 5.82807C46.5398 6.64584 47.7696 7.56506 48.921 8.57497L49.5804 7.82321C50.7704 8.86708 51.879 10.0044 52.8951 11.224L52.1268 11.8641C53.1048 13.0379 53.9943 14.2906 54.7847 15.6114L55.6428 15.0979C56.4518 16.4496 57.1604 17.8704 57.7581 19.3494L56.8309 19.7241C57.4001 21.1325 57.8654 22.5957 58.217 24.1037L59.1909 23.8767Z" stroke="white" stroke-width="2" stroke-dasharray="5 5"/>
<ellipse cx="18" cy="27.2849" rx="2.4" ry="2.44164" fill="white"/>
<ellipse cx="42" cy="27.2849" rx="2.4" ry="2.44164" fill="white"/>
</svg>
