<svg width="20" height="20" viewBox="0 0 20 20" fill="none" xmlns="http://www.w3.org/2000/svg">
<path d="M2.10825 11.9949C1.93104 13.1224 2.72331 13.905 3.69336 14.295C7.41232 15.7903 12.5876 15.7903 16.3066 14.295C17.2766 13.905 18.0689 13.1224 17.8917 11.9949C17.7828 11.3019 17.2443 10.7249 16.8453 10.1615C16.3227 9.41444 16.2708 8.5996 16.2707 7.73268C16.2707 4.38242 13.4632 1.6665 9.99998 1.6665C6.53675 1.6665 3.72925 4.38242 3.72925 7.73268C3.72917 8.5996 3.67725 9.41444 3.15465 10.1615C2.75568 10.7249 2.21716 11.3019 2.10825 11.9949Z" stroke="#2A353D" stroke-width="1.5" stroke-linecap="round" stroke-linejoin="round"/>
<path d="M7.5 17.5C8.16345 18.0182 9.03956 18.3333 10 18.3333C10.9604 18.3333 11.8366 18.0182 12.5 17.5" stroke="#2A353D" stroke-width="1.5" stroke-linecap="round" stroke-linejoin="round"/>
<circle cx="17.5" cy="2.5" r="1.5" fill="#FFCD2A"/>
</svg>
