<svg width="16" height="16" viewBox="0 0 16 16" fill="none" xmlns="http://www.w3.org/2000/svg">
<path d="M9.15174 2.2961L10.3249 4.6619C10.4849 4.99123 10.9115 5.30711 11.2715 5.3676L13.3979 5.72382C14.7578 5.95233 15.0777 6.94704 14.0979 7.92831L12.4447 9.59512C12.1647 9.8774 12.0114 10.4218 12.0981 10.8116L12.5714 12.875C12.9447 14.5082 12.0847 15.14 10.6516 14.2864L8.65846 13.0968C8.2985 12.8817 7.70523 12.8817 7.3386 13.0968L5.34549 14.2864C3.91898 15.14 3.05241 14.5015 3.4257 12.875L3.89898 10.8116C3.98564 10.4218 3.83233 9.8774 3.55236 9.59512L1.89921 7.92831C0.92598 6.94704 1.23928 5.95233 2.59913 5.72382L4.72556 5.3676C5.07885 5.30711 5.50547 4.99123 5.66546 4.6619L6.83866 2.2961C7.47859 1.01238 8.51847 1.01238 9.15174 2.2961Z" fill="#F1D900" stroke="#FFB274" stroke-linecap="round" stroke-linejoin="round"/>
</svg>
