<svg width="75" height="75" viewBox="0 0 75 75" fill="none" xmlns="http://www.w3.org/2000/svg">
<circle cx="37.5" cy="37.5" r="36.5" stroke="white" stroke-width="2" stroke-dasharray="3 3"/>
<path d="M24.7912 45.66C21.4753 47.6344 12.7813 51.6659 18.0766 56.7107C20.6632 59.175 23.5441 60.9375 27.1661 60.9375H47.8339C51.4559 60.9375 54.3368 59.175 56.9235 56.7107C62.2187 51.6659 53.5247 47.6344 50.2088 45.66C42.4332 41.03 32.5668 41.03 24.7912 45.66Z" fill="white"/>
<path d="M48.0469 24.6094C48.0469 30.4343 43.3249 35.1562 37.5 35.1562C31.6751 35.1562 26.9531 30.4343 26.9531 24.6094C26.9531 18.7845 31.6751 14.0625 37.5 14.0625C43.3249 14.0625 48.0469 18.7845 48.0469 24.6094Z" fill="white"/>
<circle cx="60" cy="60" r="15" fill="#FFCD2A"/>
<path d="M51.0937 60.0005C51.0937 55.802 51.0937 53.7028 52.398 52.3985C53.7023 51.0942 55.8015 51.0942 59.9999 51.0942C64.1984 51.0942 66.2976 51.0942 67.6019 52.3985C68.9062 53.7028 68.9062 55.802 68.9062 60.0005C68.9062 64.1989 68.9062 66.2982 67.6019 67.6025C66.2976 68.9067 64.1984 68.9067 59.9999 68.9067C55.8015 68.9067 53.7023 68.9067 52.398 67.6025C51.0937 66.2982 51.0937 64.1989 51.0937 60.0005Z" stroke="white"/>
<ellipse cx="64.2187" cy="55.7817" rx="1.40625" ry="1.40625" stroke="white"/>
<path d="M50.6249 62.0025C51.2499 61.9182 51.8817 61.8765 52.5147 61.878C55.1921 61.8255 57.8039 62.6001 59.8842 64.0638C61.8135 65.4212 63.1691 67.2894 63.7499 69.3755" stroke="white" stroke-linejoin="round"/>
<path d="M60.9374 65.6255C62.5326 64.3818 64.251 63.7437 65.987 63.7505C66.9714 63.7495 67.9511 63.9583 68.9062 64.3708" stroke="white" stroke-linejoin="round"/>
</svg>
