<svg width="20" height="20" viewBox="0 0 20 20" fill="none" xmlns="http://www.w3.org/2000/svg">
<path d="M2.55141 12.6609L2.85577 10.9347C3.2155 8.89454 3.39537 7.87444 4.10766 7.27047C4.81995 6.6665 5.84313 6.6665 7.88949 6.6665H12.1106C14.157 6.6665 15.1801 6.6665 15.8924 7.27047C16.6047 7.87444 16.7846 8.89454 17.1443 10.9347L17.4487 12.6609C17.9465 15.4841 18.1954 16.8957 17.4289 17.8228C16.6625 18.7498 15.2467 18.7498 12.415 18.7498H7.58513C4.75342 18.7498 3.33757 18.7498 2.57115 17.8228C1.80473 16.8957 2.05362 15.4841 2.55141 12.6609Z" stroke="#2A353D" stroke-width="1.5"/>
<path d="M6.25 6.6665L6.38985 4.98832C6.54631 3.11072 8.11589 1.6665 10 1.6665C11.8841 1.6665 13.4537 3.11072 13.6102 4.98832L13.75 6.6665" stroke="#2A353D" stroke-width="1.5"/>
<path d="M12.5 9.16667C12.3916 10.3442 11.3047 11.25 10 11.25C8.69527 11.25 7.60835 10.3442 7.5 9.16667" stroke="#2A353D" stroke-width="1.5" stroke-linecap="round"/>
</svg>
