<svg width="30" height="31" viewBox="0 0 30 31" fill="none" xmlns="http://www.w3.org/2000/svg">
<g filter="url(#filter0_d_237_911)">
<path d="M21 2V4M9 2V4" stroke="#2A353D" stroke-width="1.5" stroke-linecap="round" stroke-linejoin="round"/>
<path d="M5.5 12.2432C5.5 7.88594 5.5 5.70728 6.75212 4.35364C8.00424 3 10.0195 3 14.05 3H15.95C19.9805 3 21.9958 3 23.2479 4.35364C24.5 5.70728 24.5 7.88594 24.5 12.2432V12.7568C24.5 17.1141 24.5 19.2927 23.2479 20.6464C21.9958 22 19.9805 22 15.95 22H14.05C10.0195 22 8.00424 22 6.75212 20.6464C5.5 19.2927 5.5 17.1141 5.5 12.7568V12.2432Z" stroke="#2A353D" stroke-width="1.5" stroke-linecap="round" stroke-linejoin="round"/>
<path d="M6 8H24" stroke="#2A353D" stroke-width="1.5" stroke-linecap="round" stroke-linejoin="round"/>
</g>
<defs>
<filter id="filter0_d_237_911" x="-1" y="0" width="32" height="32" filterUnits="userSpaceOnUse" color-interpolation-filters="sRGB">
<feFlood flood-opacity="0" result="BackgroundImageFix"/>
<feColorMatrix in="SourceAlpha" type="matrix" values="0 0 0 0 0 0 0 0 0 0 0 0 0 0 0 0 0 0 127 0" result="hardAlpha"/>
<feOffset dy="4"/>
<feGaussianBlur stdDeviation="2"/>
<feComposite in2="hardAlpha" operator="out"/>
<feColorMatrix type="matrix" values="0 0 0 0 0 0 0 0 0 0 0 0 0 0 0 0 0 0 0.25 0"/>
<feBlend mode="normal" in2="BackgroundImageFix" result="effect1_dropShadow_237_911"/>
<feBlend mode="normal" in="SourceGraphic" in2="effect1_dropShadow_237_911" result="shape"/>
</filter>
</defs>
</svg>
