<svg width="14" height="14" viewBox="0 0 14 14" fill="none" xmlns="http://www.w3.org/2000/svg">
<path fill-rule="evenodd" clip-rule="evenodd" d="M7 13.75C7.88642 13.75 8.76417 13.5754 9.58311 13.2362C10.4021 12.897 11.1462 12.3998 11.773 11.773C12.3998 11.1462 12.897 10.4021 13.2362 9.58311C13.5754 8.76417 13.75 7.88642 13.75 7C13.75 6.11358 13.5754 5.23583 13.2362 4.41689C12.897 3.59794 12.3998 2.85382 11.773 2.22703C11.1462 1.60023 10.4021 1.10303 9.58311 0.763813C8.76417 0.424594 7.88642 0.25 7 0.25C5.20979 0.25 3.4929 0.961159 2.22703 2.22703C0.961159 3.4929 0.25 5.20979 0.25 7C0.25 8.79021 0.961159 10.5071 2.22703 11.773C3.4929 13.0388 5.20979 13.75 7 13.75ZM6.826 9.73L10.576 5.23L9.424 4.27L6.199 8.13925L4.53025 6.46975L3.46975 7.53025L5.71975 9.78025L6.30025 10.3608L6.826 9.73Z" fill="#FFCD2A"/>
</svg>
