<svg width="26" height="26" viewBox="0 0 32 32" fill="none" xmlns="http://www.w3.org/2000/svg">
<path fill-rule="evenodd" clip-rule="evenodd" d="M32 13.7842C32 6.77243 24.8226 1.06665 16 1.06665C7.17742 1.06665 0 6.77243 0 13.7842C0 20.0717 5.69875 25.3383 13.3801 26.3328C13.902 26.443 14.6113 26.6692 14.7898 27.1055C14.9517 27.5022 14.8962 28.1236 14.8422 28.5232C14.8422 28.5232 14.6548 29.6294 14.6143 29.8644L14.6083 29.8979C14.5317 30.3215 14.3376 31.3954 16 30.7106C17.7081 30.0069 25.214 25.3956 28.5703 21.6098C30.8887 19.1198 32 16.5871 32 13.7842ZM26.6761 17.8344H22.1771C22.0976 17.8344 22.0213 17.8034 21.965 17.7483C21.9088 17.6932 21.8772 17.6185 21.8772 17.5406V10.6948C21.8772 10.6169 21.9088 10.5421 21.965 10.487C22.0213 10.4319 22.0976 10.401 22.1771 10.401H26.6761C26.7557 10.401 26.832 10.4319 26.8882 10.487C26.9445 10.5421 26.9761 10.6169 26.9761 10.6948V11.8069C26.9761 11.8848 26.9445 11.9595 26.8882 12.0146C26.832 12.0697 26.7557 12.1007 26.6761 12.1007H23.6213V13.2539H26.6761C26.7557 13.2539 26.832 13.2848 26.8882 13.3399C26.9445 13.395 26.9761 13.4698 26.9761 13.5477V14.6774C26.9761 14.7553 26.9445 14.83 26.8882 14.8851C26.832 14.9402 26.7557 14.9712 26.6761 14.9712H23.6213V16.1259H26.6761C26.7557 16.1259 26.832 16.1568 26.8882 16.2119C26.9445 16.267 26.9761 16.3417 26.9761 16.4197V17.5303C26.9775 17.5697 26.9708 17.609 26.9563 17.6459C26.9419 17.6827 26.92 17.7163 26.892 17.7447C26.864 17.7731 26.8305 17.7957 26.7934 17.8111C26.7563 17.8265 26.7164 17.8344 26.6761 17.8344ZM10.2614 17.7483C10.2051 17.8034 10.1288 17.8344 10.0493 17.8344L10.0598 17.83H5.56075C5.48121 17.83 5.40492 17.799 5.34867 17.7439C5.29242 17.6888 5.26082 17.6141 5.26082 17.5361V10.7007C5.26082 10.6227 5.29242 10.548 5.34867 10.4929C5.40492 10.4378 5.48121 10.4069 5.56075 10.4069H6.6945C6.77405 10.4069 6.85035 10.4378 6.90659 10.4929C6.96284 10.548 6.99444 10.6227 6.99444 10.7007V16.1361H10.0493C10.1288 16.1361 10.2051 16.1671 10.2614 16.2222C10.3176 16.2773 10.3492 16.352 10.3492 16.43V17.5406C10.3492 17.6185 10.3176 17.6932 10.2614 17.7483ZM12.7547 10.3966H11.6209C11.452 10.3966 11.315 10.5307 11.315 10.6963V17.5361C11.315 17.7017 11.452 17.8358 11.6209 17.8358H12.7547C12.9236 17.8358 13.0606 17.7017 13.0606 17.5361V10.6963C13.0606 10.5307 12.9236 10.3966 12.7547 10.3966ZM19.3457 10.3951H20.4795C20.5194 10.3951 20.5589 10.4029 20.5957 10.418C20.6325 10.4331 20.6658 10.4553 20.6937 10.4832C20.7217 10.5111 20.7436 10.5442 20.7583 10.5805C20.7731 10.6169 20.7802 10.6557 20.7794 10.6948V17.5097C20.7794 17.5876 20.7478 17.6624 20.6916 17.7175C20.6353 17.7726 20.559 17.8035 20.4795 17.8035H19.3517C19.3244 17.8031 19.2973 17.7996 19.2708 17.7932H19.2003L19.1823 17.7815C19.1517 17.761 19.1252 17.7351 19.1043 17.7051L15.9055 13.4742V17.5773C15.9055 17.6552 15.8739 17.7299 15.8176 17.785C15.7614 17.8401 15.6851 17.8711 15.6056 17.8711H14.4703C14.3908 17.8711 14.3145 17.8401 14.2582 17.785C14.202 17.7299 14.1704 17.6552 14.1704 17.5773V10.7374C14.1704 10.6595 14.202 10.5847 14.2582 10.5296C14.3145 10.4745 14.3908 10.4436 14.4703 10.4436H15.7405L15.757 10.4524H15.766L15.7825 10.4641H15.7915L15.808 10.4774L15.826 10.495C15.8357 10.5043 15.8442 10.5147 15.8515 10.5258L19.0458 14.7523V10.6889C19.0458 10.611 19.0774 10.5363 19.1337 10.4812C19.1899 10.4261 19.2662 10.3951 19.3457 10.3951Z" fill="white"/>
</svg>
