<svg width="59" height="59" viewBox="0 0 59 59" fill="none" xmlns="http://www.w3.org/2000/svg">
<circle cx="29.5" cy="29.5" r="28.5" stroke="#D3D3D3" stroke-width="2" stroke-dasharray="3 3"/>
<path d="M19.5024 35.9192C16.8939 37.4724 10.0546 40.6438 14.2202 44.6124C16.2551 46.551 18.5214 47.9375 21.3707 47.9375H37.6293C40.4786 47.9375 42.7449 46.551 44.7798 44.6124C48.9454 40.6438 42.1061 37.4724 39.4976 35.9192C33.3807 32.2769 25.6193 32.2769 19.5024 35.9192Z" fill="#D1D1D1"/>
<path d="M37.7969 19.3594C37.7969 23.9416 34.0822 27.6562 29.5 27.6562C24.9178 27.6562 21.2031 23.9416 21.2031 19.3594C21.2031 14.7771 24.9178 11.0625 29.5 11.0625C34.0822 11.0625 37.7969 14.7771 37.7969 19.3594Z" fill="#D1D1D1"/>
<circle cx="47.2" cy="47.1999" r="11.8" fill="#FFCD2A"/>
<path d="M40.1937 47.2001C40.1937 43.8973 40.1937 42.2459 41.2198 41.2199C42.2458 40.1938 43.8972 40.1938 47.2 40.1938C50.5028 40.1938 52.1541 40.1938 53.1802 41.2199C54.2062 42.2459 54.2062 43.8973 54.2062 47.2001C54.2062 50.5029 54.2062 52.1543 53.1802 53.1803C52.1541 54.2063 50.5028 54.2063 47.2 54.2063C43.8972 54.2063 42.2458 54.2063 41.2198 53.1803C40.1937 52.1543 40.1937 50.5029 40.1937 47.2001Z" stroke="white"/>
<circle cx="50.5187" cy="43.8814" r="1.10625" stroke="white"/>
<path d="M39.825 48.7749C40.3166 48.7086 40.8136 48.6759 41.3115 48.677C43.4178 48.6357 45.4724 49.2451 47.1089 50.3965C48.6266 51.4644 49.6931 52.934 50.15 54.575" stroke="white" stroke-linejoin="round"/>
<path d="M47.9375 51.6251C49.1924 50.6467 50.5442 50.1448 51.9098 50.1502C52.6842 50.1494 53.4549 50.3136 54.2063 50.6381" stroke="white" stroke-linejoin="round"/>
</svg>
