<svg width="20" height="20" viewBox="0 0 20 20" fill="none" xmlns="http://www.w3.org/2000/svg">
<path d="M2.08331 10C2.08331 6.26809 2.08331 4.40211 3.24268 3.24274C4.40205 2.08337 6.26803 2.08337 9.99998 2.08337C13.7319 2.08337 15.5979 2.08337 16.7573 3.24274C17.9166 4.40211 17.9166 6.26809 17.9166 10C17.9166 13.732 17.9166 15.598 16.7573 16.7573C15.5979 17.9167 13.7319 17.9167 9.99998 17.9167C6.26803 17.9167 4.40205 17.9167 3.24268 16.7573C2.08331 15.598 2.08331 13.732 2.08331 10Z" stroke="#D1D1D1" stroke-width="1.5" stroke-linejoin="round"/>
<path d="M13.75 10C13.75 12.0711 12.0711 13.75 10 13.75C7.92893 13.75 6.25 12.0711 6.25 10C6.25 7.92893 7.92893 6.25 10 6.25C12.0711 6.25 13.75 7.92893 13.75 10Z" stroke="#D1D1D1" stroke-width="1.5"/>
<path d="M14.5905 5.41669L14.583 5.41669" stroke="#D1D1D1" stroke-width="2" stroke-linecap="round" stroke-linejoin="round"/>
</svg>
